<?xml version="1.0" encoding="utf-8"?>
<!-- Generator: Adobe Illustrator 23.0.2, SVG Export Plug-In . SVG Version: 6.00 Build 0)  -->
<svg version="1.1" id="Capa_1" xmlns="http://www.w3.org/2000/svg" xmlns:xlink="http://www.w3.org/1999/xlink" x="0px" y="0px"
	 viewBox="0 0 1920 1080" style="enable-background:new 0 0 1920 1080;" xml:space="preserve">
<style type="text/css">
	.st0{fill:#FFFFFF;}
	.st1{fill:url(#SVGID_1_);}
	.st2{fill:url(#SVGID_2_);}
	.st3{fill:url(#SVGID_3_);}
</style>
<rect class="st0" width="1920" height="1065"/>
<linearGradient id="SVGID_1_" gradientUnits="userSpaceOnUse" x1="24.3545" y1="547.5" x2="1944.3545" y2="547.5" gradientTransform="matrix(1 0 0 -1 0 1080)">
	<stop  offset="0" style="stop-color:#FBDA61"/>
	<stop  offset="1" style="stop-color:#FF5ACD;stop-opacity:0.6"/>
</linearGradient>
<path class="st1" d="M1920,1017.5c-52.7,6.7-130.4,11.2-220.9-5.5c-115.7-21.3-154.7-59.1-227.7-82.9c-204-66.4-279.3,105-557.3,100
	c-205.1-3.7-212.4-97.8-424.8-81.1c-120.8,9.5-276.6,52.4-325.3,65.8C95.9,1032.5,39.8,1051,0,1065C0,710,0,355,0,0h1920
	C1920,339.2,1920,678.3,1920,1017.5z"/>
<linearGradient id="SVGID_2_" gradientUnits="userSpaceOnUse" x1="24.3545" y1="547.5" x2="1944.3545" y2="547.5" gradientTransform="matrix(1 0 0 -1 0 1080)">
	<stop  offset="0" style="stop-color:#FBDA61"/>
	<stop  offset="1" style="stop-color:#FF5ACD"/>
</linearGradient>
<path class="st2" d="M1920,953.5c-44.6,7.6-111,14.5-189.8,5.5c-113.7-13-173.9-50.2-232.1-69.8
	c-203.1-68.5-278.2,111.4-557.4,111.5C699.2,1000.7,631,864.3,428.9,922c-56.9,16.3-165.5,49.2-204.7,62.1
	c-94.9,31.4-172,60.4-224.2,80.8C0,710,0,355,0,0h1920C1920,317.8,1920,635.7,1920,953.5z"/>
<linearGradient id="SVGID_3_" gradientUnits="userSpaceOnUse" x1="-248" y1="293" x2="-248" y2="293" gradientTransform="matrix(1 0 0 -1 0 1080)">
	<stop  offset="0" style="stop-color:#FBDA61"/>
	<stop  offset="1" style="stop-color:#FF5ACD"/>
</linearGradient>
<path class="st3" d="M-248,787"/>
</svg>
