<?xml version="1.0" encoding="utf-8"?>
<!-- Generator: Adobe Illustrator 23.0.2, SVG Export Plug-In . SVG Version: 6.00 Build 0)  -->
<svg version="1.1" id="Capa_1" xmlns="http://www.w3.org/2000/svg" xmlns:xlink="http://www.w3.org/1999/xlink" x="0px" y="0px"
	 viewBox="0 0 1920 1080" style="enable-background:new 0 0 1920 1080;" xml:space="preserve">
<style type="text/css">
	.st0{fill:#FFFFFF;}
	.st1{fill:url(#SVGID_1_);}
	.st2{fill:url(#SVGID_2_);}
	.st3{fill:url(#SVGID_3_);}
</style>
<rect class="st0" width="1920" height="1080"/>
<linearGradient id="SVGID_1_" gradientUnits="userSpaceOnUse" x1="24.3545" y1="485.9485" x2="1944.3545" y2="485.9485">
	<stop  offset="0" style="stop-color:#FBDA61"/>
	<stop  offset="1" style="stop-color:#FF5ACD;stop-opacity:0.6"/>
</linearGradient>
<path class="st1" d="M1920,791c-75.04,56.22-194.52,130.49-353,164c-400.47,84.67-639.48-177.77-1112-151
	c-114.29,6.48-270.73,31.48-455,113C0,611.33,0,305.67,0,0h1920C1920,263.67,1920,527.33,1920,791z"/>
<linearGradient id="SVGID_2_" gradientUnits="userSpaceOnUse" x1="24.3545" y1="466.831" x2="1944.3545" y2="466.831">
	<stop  offset="0" style="stop-color:#FBDA61"/>
	<stop  offset="1" style="stop-color:#FF5ACD"/>
</linearGradient>
<path class="st2" d="M1920,734c-196.27,146.58-362.37,185.37-471,196c-345.82,33.83-523.64-177.15-941-207
	c-219.38-15.69-399.68,26.19-508,59C0,521.33,0,260.67,0,0h1920V734z"/>
<linearGradient id="SVGID_3_" gradientUnits="userSpaceOnUse" x1="-248" y1="787" x2="-248" y2="787">
	<stop  offset="0" style="stop-color:#FBDA61"/>
	<stop  offset="1" style="stop-color:#FF5ACD"/>
</linearGradient>
<path class="st3" d="M-248,787"/>
</svg>
